<svg xmlns="http://www.w3.org/2000/svg" width="512" height="512" viewBox="0 0 512 512" fill="none"><rect width="512" height="512" rx="96" fill="#1C1B1A"/><rect x="64.00" y="112.00" width="256.00" height="16.00" fill="#FF6A00"/><rect x="368.00" y="112.00" width="48.00" height="16.00" fill="#FF6A00"/><rect x="64.00" y="128.00" width="256.00" height="16.00" fill="#FF6A00"/><rect x="368.00" y="128.00" width="48.00" height="16.00" fill="#FF6A00"/><rect x="64.00" y="144.00" width="256.00" height="16.00" fill="#FF6A00"/><rect x="368.00" y="144.00" width="48.00" height="16.00" fill="#FF6A00"/><rect x="64.00" y="160.00" width="64.00" height="16.00" fill="#FF6A00"/><rect x="176.00" y="160.00" width="32.00" height="16.00" fill="#FF6A00"/><rect x="256.00" y="160.00" width="64.00" height="16.00" fill="#FF6A00"/><rect x="64.00" y="176.00" width="64.00" height="16.00" fill="#FF6A00"/><rect x="176.00" y="176.00" width="32.00" height="16.00" fill="#FF6A00"/><rect x="256.00" y="176.00" width="64.00" height="16.00" fill="#FF6A00"/><rect x="64.00" y="192.00" width="64.00" height="16.00" fill="#FF6A00"/><rect x="176.00" y="192.00" width="32.00" height="16.00" fill="#FF6A00"/><rect x="256.00" y="192.00" width="64.00" height="16.00" fill="#FF6A00"/><rect x="368.00" y="192.00" width="48.00" height="16.00" fill="#FF6A00"/><rect x="64.00" y="208.00" width="64.00" height="16.00" fill="#FF6A00"/><rect x="176.00" y="208.00" width="32.00" height="16.00" fill="#FF6A00"/><rect x="256.00" y="208.00" width="64.00" height="16.00" fill="#FF6A00"/><rect x="368.00" y="208.00" width="48.00" height="16.00" fill="#FF6A00"/><rect x="64.00" y="224.00" width="64.00" height="16.00" fill="#FF6A00"/><rect x="176.00" y="224.00" width="32.00" height="16.00" fill="#FF6A00"/><rect x="256.00" y="224.00" width="64.00" height="16.00" fill="#FF6A00"/><rect x="368.00" y="224.00" width="48.00" height="16.00" fill="#FF6A00"/><rect x="64.00" y="240.00" width="64.00" height="16.00" fill="#FF6A00"/><rect x="256.00" y="240.00" width="64.00" height="16.00" fill="#FF6A00"/><rect x="368.00" y="240.00" width="48.00" height="16.00" fill="#FF6A00"/><rect x="64.00" y="256.00" width="64.00" height="16.00" fill="#FF6A00"/><rect x="256.00" y="256.00" width="64.00" height="16.00" fill="#FF6A00"/><rect x="368.00" y="256.00" width="48.00" height="16.00" fill="#FF6A00"/><rect x="64.00" y="272.00" width="64.00" height="16.00" fill="#FF6A00"/><rect x="256.00" y="272.00" width="64.00" height="16.00" fill="#FF6A00"/><rect x="368.00" y="272.00" width="48.00" height="16.00" fill="#FF6A00"/><rect x="64.00" y="288.00" width="64.00" height="16.00" fill="#FF6A00"/><rect x="256.00" y="288.00" width="64.00" height="16.00" fill="#FF6A00"/><rect x="368.00" y="288.00" width="48.00" height="16.00" fill="#FF6A00"/><rect x="64.00" y="304.00" width="64.00" height="16.00" fill="#FF6A00"/><rect x="256.00" y="304.00" width="64.00" height="16.00" fill="#FF6A00"/><rect x="368.00" y="304.00" width="48.00" height="16.00" fill="#FF6A00"/><rect x="64.00" y="320.00" width="64.00" height="16.00" fill="#FF6A00"/><rect x="256.00" y="320.00" width="64.00" height="16.00" fill="#FF6A00"/><rect x="368.00" y="320.00" width="48.00" height="16.00" fill="#FF6A00"/><rect x="64.00" y="336.00" width="64.00" height="16.00" fill="#FF6A00"/><rect x="256.00" y="336.00" width="64.00" height="16.00" fill="#FF6A00"/><rect x="368.00" y="336.00" width="48.00" height="16.00" fill="#FF6A00"/><rect x="64.00" y="352.00" width="64.00" height="16.00" fill="#FF6A00"/><rect x="256.00" y="352.00" width="64.00" height="16.00" fill="#FF6A00"/><rect x="368.00" y="352.00" width="48.00" height="16.00" fill="#FF6A00"/><rect x="64.00" y="368.00" width="64.00" height="16.00" fill="#FF6A00"/><rect x="256.00" y="368.00" width="64.00" height="16.00" fill="#FF6A00"/><rect x="368.00" y="368.00" width="48.00" height="16.00" fill="#FF6A00"/><rect x="64.00" y="384.00" width="64.00" height="16.00" fill="#FF6A00"/><rect x="256.00" y="384.00" width="64.00" height="16.00" fill="#FF6A00"/><rect x="368.00" y="384.00" width="48.00" height="16.00" fill="#FF6A00"/></svg>
